<svg xmlns="http://www.w3.org/2000/svg" width="61.826" height="55.701" viewBox="0 0 61.826 55.701">
  <g id="Layer_2" data-name="Layer 2" transform="translate(0 0.021)">
    <g id="Layer_1" data-name="Layer 1" transform="translate(0 -0.021)">
      <path id="Path_37" data-name="Path 37" d="M46.72,63.755c.063-.112.13-.243.211-.373a90.678,90.678,0,0,1,13.42-17.067,51.717,51.717,0,0,1,12.787-9.481c.988-.508.984-.516,1.72.274A19.4,19.4,0,0,1,74.979,63.6a18.437,18.437,0,0,1-11.646,6.036,19.078,19.078,0,0,1-16.42-5.628l-.135-.153a1.06,1.06,0,0,1-.058-.1Z" transform="translate(-25.737 -20.086)" fill="#fff"/>
      <path id="Path_38" data-name="Path 38" d="M9.122,71c-.157-.786-.31-1.576-.449-2.362A60.183,60.183,0,0,0,5.21,56.706,39.945,39.945,0,0,0,.278,48.136,1.927,1.927,0,0,1,0,47.642c4.078,1.347,7.473,3.818,10.887,6.382.117-.139.234-.274.346-.413a71.86,71.86,0,0,1,24.7-20.274,60.723,60.723,0,0,1,10.379-4.109,33.128,33.128,0,0,1,9.162-1.437,8.812,8.812,0,0,1,3.09.427A4.636,4.636,0,0,1,61.8,32.511,11.064,11.064,0,0,1,60.4,38.44c-.148.3-.332.2-.6.112.085-.2.166-.391.247-.588a12.814,12.814,0,0,0,1.154-4.042,4.208,4.208,0,0,0-3.957-4.81,15.048,15.048,0,0,0-5.313.449,36.78,36.78,0,0,0-10.626,4.491A68.963,68.963,0,0,0,28.771,43.6,90.93,90.93,0,0,0,16.793,57.294,68.168,68.168,0,0,0,9.971,69.389c-.234.539-.494,1.064-.741,1.6Z" transform="translate(0 -15.296)" fill="#fff"/>
      <path id="Path_39" data-name="Path 39" d="M34.981,44.948c-.243-7.1,2.38-12.858,8.17-17.022a19.2,19.2,0,0,1,20.574-1.06A73.513,73.513,0,0,0,34.981,44.948Z" transform="translate(-19.262 -13.419)" fill="#fff"/>
      <path id="Path_40" data-name="Path 40" d="M42.544,11.188c-.449-.746-.9-1.487-1.37-2.246a.687.687,0,0,1,.584-1.114.561.561,0,0,1,.4.238c.921,1.473,1.823,2.955,2.735,4.428a.413.413,0,0,1-.162.669c-1.109.651-.826.719-1.8-.1-.66-.566-1.316-1.141-2.048-1.657.054.112.1.225.162.328.449.737.9,1.464,1.347,2.2.26.449.234.508-.225.795s-.615.314-.867-.09q-1.347-2.169-2.695-4.343c-.189-.305-.162-.516.157-.705,1.208-.71.84-.714,1.823.09.6.49,1.181,1,1.8,1.5a.5.5,0,0,0,.085.04Z" transform="translate(-21.202 -4.302)" fill="#fff"/>
      <path id="Path_41" data-name="Path 41" d="M17.031,42.3a1.709,1.709,0,0,1,1.8-.117,6.783,6.783,0,0,0,.723.234c.292.076.359.238.283.525-.252.934-.373,1.006-1.311.669l-.476-.162c-.7-.216-.934-.081-1.132.687l1.635.6c.485.18.521.26.355.746-.04.13-.094.256-.135.382-.1.31-.3.373-.588.269q-2.466-.9-4.94-1.8a.373.373,0,0,1-.26-.552c.247-.642.449-1.3.737-1.936a1.334,1.334,0,0,1,1.9-.813A1.705,1.705,0,0,1,17.031,42.3Zm-2.609.9,1.545.566c0-.409.144-.84,0-.975a1.671,1.671,0,0,0-1.028-.386c-.359.022-.413.44-.516.817Z" transform="translate(-7.123 -22.527)" fill="#fff"/>
      <path id="Path_42" data-name="Path 42" d="M14.641,56.4c-.09.355-.2.6-.62.525-.588-.1-.656-.157-.57-.755.04-.314.085-.633.13-.948s.18-.4.449-.355c.53.085,1.069.139,1.59.274a1.4,1.4,0,0,1,1.172,1.4,5.241,5.241,0,0,1-.292,1.617,1.253,1.253,0,0,1-1.195.8,11.565,11.565,0,0,1-3.553-.418,1.6,1.6,0,0,1-1.267-1.8,3.9,3.9,0,0,1,.153-.943,1.473,1.473,0,0,1,1.8-1.087c.081,0,.225.045.225.081a4.8,4.8,0,0,1,0,1.015.5.5,0,0,1-.377.292c-.364,0-.6.139-.606.516s.252.539.579.588c.9.126,1.77.247,2.654.346a.57.57,0,0,0,.692-.494c.045-.373-.225-.5-.508-.588a2.4,2.4,0,0,0-.454-.076Z" transform="translate(-5.775 -30.112)" fill="#fff"/>
      <path id="Path_43" data-name="Path 43" d="M88.964,6.956l-1.02-.265c-.067.121-.117.207-.157.3-.323.692-.71.813-1.379.422-.3-.171-.18-.391-.076-.611l1.473-3.045c.269-.561.552-1.118.808-1.689a.449.449,0,0,1,.566-.274c.377.094.75.2,1.127.287a.413.413,0,0,1,.332.49c-.1,1.8-.2,3.566-.31,5.349-.022.382-.144.449-.539.368l-.148-.031c-.719-.18-.719-.18-.678-.9C88.969,7.23,88.964,7.118,88.964,6.956Zm.4-3.4-.1-.036-.9,2.084.777.184Z" transform="translate(-47.497 -0.964)" fill="#fff"/>
      <path id="Path_44" data-name="Path 44" d="M63.828.73a1.409,1.409,0,0,1,1.541,1.136c.085.328.027.53-.332.584l-.449.076c-.243.049-.427,0-.508-.269a.449.449,0,0,0-.588-.328.629.629,0,0,0-.4.314.539.539,0,0,0,.287.687,5.389,5.389,0,0,0,1.055.319A2.038,2.038,0,0,1,66.051,5.76,1.24,1.24,0,0,1,65.3,6.766a3.22,3.22,0,0,1-1.864.305,1.514,1.514,0,0,1-1.24-1.455.561.561,0,0,1,.269-.355,1.473,1.473,0,0,1,.449-.1.481.481,0,0,1,.674.391.5.5,0,0,0,.746.355c.148-.072.355-.26.346-.377a1.738,1.738,0,0,0-.283-.759c-.085-.13-.319-.175-.49-.234s-.391-.108-.584-.157a1.769,1.769,0,0,1-1.6-1.846A1.415,1.415,0,0,1,62.795.923,9.913,9.913,0,0,1,63.828.73Z" transform="translate(-33.988 -0.393)" fill="#fff"/>
      <path id="Path_45" data-name="Path 45" d="M29.441,19.26l.9.862c.22-.26.449-.561.7-.822s.4-.247.75.112.391.481.121.759-.557.485-.9.777l1.028.934c.319-.328.624-.66.948-.975s.449-.332.822.049.409.5.081.831q-.8.831-1.635,1.644c-.332.323-.413.323-.746,0l-3.593-3.593c-.341-.341-.337-.449,0-.79q.764-.772,1.541-1.536c.346-.346.449-.332.831.031s.377.481.036.835S29.746,18.963,29.441,19.26Z" transform="translate(-15.239 -9.5)" fill="#fff"/>
      <path id="Path_46" data-name="Path 46" d="M21.024,29.882l.943.62c.216-.328.409-.638.615-.934s.319-.355.746-.085.5.391.292.746-.377.6-.6.943l1.06.71.75-1.141c.292-.449.377-.449.849-.153s.485.4.2.844c-.391.638-.84,1.271-1.231,1.913a.449.449,0,0,1-.705.162q-2.156-1.415-4.325-2.807a.449.449,0,0,1-.139-.705c.427-.624.826-1.271,1.244-1.9.252-.377.359-.386.786-.108s.449.4.247.764S21.284,29.478,21.024,29.882Z" transform="translate(-10.667 -15.298)" fill="#fff"/>
      <path id="Path_47" data-name="Path 47" d="M76.571,1.259c0,.346-.036.692-.054,1.1.4,0,.768.031,1.136.054s.481.094.476.53c0,.561-.081.669-.5.683h-1.1V4.929h1.347c.5,0,.548.063.548.615s-.054.615-.548.611c-.777,0-1.549-.027-2.326-.031-.35,0-.521-.126-.512-.512.045-1.7.072-3.4.112-5.1,0-.449.1-.539.534-.53.755,0,1.514.027,2.273.067.5.022.534.1.49.746,0,.4-.148.476-.606.449S77.025,1.259,76.571,1.259Z" transform="translate(-41.337 0.021)" fill="#fff"/>
      <path id="Path_48" data-name="Path 48" d="M100.777,11.055c.418.216.808.409,1.19.62s.409.305.139.817-.323.494-.732.287c-.66-.332-1.32-.674-1.976-1.015-.409-.216-.449-.341-.225-.768q1.145-2.214,2.3-4.46c.229-.449.305-.449.741-.252.108.049.216.1.319.157.4.211.449.31.234.71q-.9,1.8-1.85,3.593Z" transform="translate(-54.557 -3.383)" fill="#fff"/>
    </g>
  </g>
</svg>
