<svg id="Layer_1" data-name="Layer 1" xmlns="http://www.w3.org/2000/svg" xmlns:xlink="http://www.w3.org/1999/xlink" viewBox="0 0 152.43 125.26"><defs><style>.cls-1{isolation:isolate;}.cls-2{fill:#2061a1;}.cls-3{fill:url(#linear-gradient);}.cls-4{fill:url(#linear-gradient-2);}</style><linearGradient id="linear-gradient" x1="40.13" y1="48.52" x2="115.71" y2="48.52" gradientTransform="matrix(1, 0, 0, -1, 0, 94)" gradientUnits="userSpaceOnUse"><stop offset="0" stop-color="#4daadf"/><stop offset="0.98" stop-color="#3a63af"/></linearGradient><linearGradient id="linear-gradient-2" x1="62.27" y1="41.83" x2="70.13" y2="41.83" xlink:href="#linear-gradient"/></defs><g class="cls-1"><path class="cls-2" d="M13.54,100.06a5.2,5.2,0,0,1-1.73,4.23,7.36,7.36,0,0,1-4.91,1.47H5.34v6.09H1.71V94.72H7.18a7.3,7.3,0,0,1,4.74,1.34A4.9,4.9,0,0,1,13.54,100.06Zm-8.2,2.72H6.53A4,4,0,0,0,9,102.12a2.3,2.3,0,0,0,.83-1.93,2.37,2.37,0,0,0-.69-1.88A3.27,3.27,0,0,0,7,97.7H5.34Z" transform="translate(-1.71)"/><path class="cls-2" d="M30.72,94.72v11.09a6.33,6.33,0,0,1-.85,3.32,5.47,5.47,0,0,1-2.45,2.2,8.91,8.91,0,0,1-3.8.76,7.27,7.27,0,0,1-5.13-1.7,6,6,0,0,1-1.83-4.63v-11h3.62v10.49a4.42,4.42,0,0,0,.8,2.91,3.33,3.33,0,0,0,2.63.92,3.26,3.26,0,0,0,2.59-.93,4.45,4.45,0,0,0,.8-2.92V94.72Z" transform="translate(-1.71)"/><path class="cls-2" d="M38.55,105.28v6.57H34.92V94.72h5A8.54,8.54,0,0,1,45.08,96a5.08,5.08,0,0,1,.84,6.55,5.47,5.47,0,0,1-2.36,1.85q3.87,5.77,5,7.46h-4l-4.09-6.57Zm0-3h1.17a4.47,4.47,0,0,0,2.54-.58,2,2,0,0,0,.82-1.8,1.88,1.88,0,0,0-.83-1.74,5.16,5.16,0,0,0-2.6-.51h-1.1Z" transform="translate(-1.71)"/><path class="cls-2" d="M60.63,111.85H50.76V94.72h9.87v3H54.39v3.76h5.8v3h-5.8v4.41h6.24Z" transform="translate(-1.71)"/><path class="cls-2" d="M80.55,107.1a4.43,4.43,0,0,1-1.67,3.65,7.25,7.25,0,0,1-4.65,1.34,11,11,0,0,1-4.85-1v-3.38a19.61,19.61,0,0,0,2.94,1.09,8.71,8.71,0,0,0,2.19.32,3.11,3.11,0,0,0,1.84-.46,1.58,1.58,0,0,0,.64-1.36,1.54,1.54,0,0,0-.28-.89,3.09,3.09,0,0,0-.83-.76,20.76,20.76,0,0,0-2.22-1.16A10.69,10.69,0,0,1,71.3,103a5.3,5.3,0,0,1-1.25-1.58,4.56,4.56,0,0,1-.47-2.11,4.39,4.39,0,0,1,1.54-3.57,6.4,6.4,0,0,1,4.26-1.31,10.12,10.12,0,0,1,2.55.32,18,18,0,0,1,2.54.89L79.3,98.51A17,17,0,0,0,77,97.72a7.27,7.27,0,0,0-1.77-.22,2.35,2.35,0,0,0-1.58.48,1.57,1.57,0,0,0-.55,1.25,1.64,1.64,0,0,0,.22.84,2.47,2.47,0,0,0,.71.69,23,23,0,0,0,2.31,1.2,9.17,9.17,0,0,1,3.29,2.31A4.51,4.51,0,0,1,80.55,107.1Z" transform="translate(-1.71)"/><path class="cls-2" d="M95.49,100.06a5.23,5.23,0,0,1-1.73,4.23,7.36,7.36,0,0,1-4.91,1.47H87.29v6.09H83.66V94.72h5.47a7.3,7.3,0,0,1,4.74,1.34A4.9,4.9,0,0,1,95.49,100.06Zm-8.2,2.72h1.19a4,4,0,0,0,2.51-.66,2.3,2.3,0,0,0,.83-1.93,2.37,2.37,0,0,0-.69-1.88,3.27,3.27,0,0,0-2.19-.61H87.29Z" transform="translate(-1.71)"/><path class="cls-2" d="M109.21,111.85,108,107.78h-6.24l-1.25,4.07H96.57l6.05-17.2h4.44l6.07,17.2Zm-2.11-7.12q-1.71-5.55-1.94-6.27c-.14-.49-.24-.87-.31-1.15q-.37,1.5-2.21,7.42Z" transform="translate(-1.71)"/><path class="cls-2" d="M122.56,97.5A3.68,3.68,0,0,0,119.39,99a7.17,7.17,0,0,0-1.13,4.29q0,5.73,4.3,5.73a13.63,13.63,0,0,0,4.37-.9v3a12.2,12.2,0,0,1-4.71.88,7.2,7.2,0,0,1-5.72-2.27q-2-2.26-2-6.51a10.75,10.75,0,0,1,1-4.68,7,7,0,0,1,2.8-3.08,8.21,8.21,0,0,1,4.27-1.08,11.6,11.6,0,0,1,5,1.21l-1.17,2.95a19.75,19.75,0,0,0-1.94-.79A5.67,5.67,0,0,0,122.56,97.5Z" transform="translate(-1.71)"/><path class="cls-2" d="M140.44,111.85h-9.86V94.72h9.86v3h-6.23v3.76H140v3h-5.8v4.41h6.23Z" transform="translate(-1.71)"/><path class="cls-2" d="M154.13,107.1a4.41,4.41,0,0,1-1.67,3.65,7.24,7.24,0,0,1-4.64,1.34,11.06,11.06,0,0,1-4.86-1v-3.38a19.61,19.61,0,0,0,2.94,1.09,8.72,8.72,0,0,0,2.2.32,3.09,3.09,0,0,0,1.83-.46,1.55,1.55,0,0,0,.64-1.36,1.47,1.47,0,0,0-.28-.89,3,3,0,0,0-.83-.76,20.76,20.76,0,0,0-2.22-1.16,10.35,10.35,0,0,1-2.35-1.42,5.18,5.18,0,0,1-1.26-1.58,4.56,4.56,0,0,1-.47-2.11,4.42,4.42,0,0,1,1.54-3.57A6.4,6.4,0,0,1,149,94.47a10.12,10.12,0,0,1,2.55.32,17.59,17.59,0,0,1,2.54.89l-1.17,2.83a17,17,0,0,0-2.27-.79,7.25,7.25,0,0,0-1.76-.22,2.36,2.36,0,0,0-1.59.48,1.61,1.61,0,0,0-.55,1.25,1.55,1.55,0,0,0,.23.84,2.24,2.24,0,0,0,.71.69A22.42,22.42,0,0,0,150,102a9.17,9.17,0,0,1,3.29,2.31A4.51,4.51,0,0,1,154.13,107.1Z" transform="translate(-1.71)"/></g><path class="cls-3" d="M115.7,26.88A16.1,16.1,0,0,1,113,36.23a6.73,6.73,0,0,1-.62.79.41.41,0,0,0-.07.51c.54,1.35,1.11,2.69,1.57,4.06a32.26,32.26,0,0,1,1.52,6.93,36.36,36.36,0,0,1,.28,5,39.46,39.46,0,0,1-.63,6.32A37.7,37.7,0,0,1,99.36,84.26a38.21,38.21,0,0,1-8.8,4.48,35.57,35.57,0,0,1-7.68,1.86c-1.49.19-3,.27-4.49.34a32.36,32.36,0,0,1-6.06-.37,36.32,36.32,0,0,1-9.73-2.82A38.17,38.17,0,0,1,45.13,72.08a36.78,36.78,0,0,1-4.42-12,31,31,0,0,1-.58-5.69c0-1.58,0-3.17.15-4.74a36.19,36.19,0,0,1,1.65-8.1,37.5,37.5,0,0,1,5.93-11.41,45,45,0,0,1,4-4.5q4.5-4.53,9-9,5.73-5.71,11.47-11.4l5-4.91c.44-.44.67-.44,1.11,0,1.66,1.67,3.33,3.33,5,5,2.9,2.94,5.79,5.89,8.7,8.82q3.7,3.71,7.43,7.39c1.26,1.25,2.56,2.46,3.85,3.69a.34.34,0,0,0,.29.08,7.57,7.57,0,0,0,3.2-3.09,5.21,5.21,0,0,0,.07-4.56,10.15,10.15,0,0,0-.85-1.41.59.59,0,0,1,0-.65.54.54,0,0,1,.59-.26,9.36,9.36,0,0,1,4.79,2.1,11.06,11.06,0,0,1,3.84,6.75C115.56,25.23,115.63,26.3,115.7,26.88ZM53.8,71.74a.83.83,0,0,0-.08-.12A31.88,31.88,0,0,1,50,65.35,30,30,0,0,1,47.58,57a31,31,0,0,1-.24-5.62,21,21,0,0,1,.21-2.62,31.22,31.22,0,0,1,1.66-6.86,23.24,23.24,0,0,1,5.15-8.37c2.27-2.3,4.58-4.57,6.87-6.84l5.52-5.4,6.89-6.77,3.68-3.65a.6.6,0,0,1,.83-.17.55.55,0,0,1,.17.17L87.56,20l6.3,6.25a.85.85,0,0,0,.62.26c.89,0,1.79.06,2.69.07A15.09,15.09,0,0,0,101.9,26l.44-.17C94,17.78,86,9.46,77.82,1.31l-.24.23L74.43,4.69l-9.24,9.18q-5.25,5.24-10.47,10.51c-1.42,1.43-2.82,2.88-4.19,4.37A34.41,34.41,0,0,0,44.05,39a37.46,37.46,0,0,0-2.81,13.37,36.25,36.25,0,0,0,8,23.78c.32.4.65.78,1,1.16.57-1,1.1-1.91,1.68-2.81S53.13,72.65,53.8,71.74ZM87.28,26.36v-.08c-.53-.2-1.06-.42-1.6-.6a22.43,22.43,0,0,0-5.2-1.05,23.3,23.3,0,0,0-6.35.22,19.81,19.81,0,0,0-11.51,6.36A20.84,20.84,0,0,0,58.3,39a25,25,0,0,0-1,5.88c0,.4,0,.41.38.41H98.59a.61.61,0,0,0,0-.19l-.33-2.33c0-.21-.2-.19-.35-.19L90,42.46H85.63A10.56,10.56,0,0,1,82.47,42,7.4,7.4,0,0,1,77.64,38a9.07,9.07,0,0,1-.58-5.83,6.55,6.55,0,0,1,3.29-4.5,10.31,10.31,0,0,1,4.18-1.11ZM58.81,64h-3a.57.57,0,0,1-.65-.48.67.67,0,0,1,0-.28c.21-.94.43-1.87.65-2.8a1.68,1.68,0,0,0,0-.89A22.93,22.93,0,0,1,55,52a23.54,23.54,0,0,1,1.11-6,1.14,1.14,0,0,0,.07-.32c.07-1,.11-2,.23-3.05a22.25,22.25,0,0,1,2.14-7.27,21.07,21.07,0,0,1,8.62-9.18,21.68,21.68,0,0,1,8.12-2.64.69.69,0,0,0,.38-.19l1.61-1.61c.43-.43.67-.43,1.09,0s1,1,1.51,1.5a.72.72,0,0,0,.38.19c.53.08,1.06.12,1.59.19a19.11,19.11,0,0,1,6.78,2.13,4.8,4.8,0,0,0,2.84.66h1L77.75,12a1.15,1.15,0,0,1-.2.29l-2.86,2.84-6.87,6.75c-2,2-4.06,4-6.08,6S57.56,32,55.47,34a21.72,21.72,0,0,0-4.85,7.39,29,29,0,0,0-2.13,12,34.91,34.91,0,0,0,.37,4.09,29.05,29.05,0,0,0,5,12.41c.22.32.46.62.71,1,.46-.51.86-1,1.33-1.44.89-.83,1.81-1.62,2.72-2.44.08-.07.18-.16.18-.25C58.81,65.83,58.81,65,58.81,64Zm49-47.29c.21.74.42,1.37.55,2a5.76,5.76,0,0,1-.65,4.18,8.71,8.71,0,0,1-4.58,3.87,16.1,16.1,0,0,1-6.3.94c-1.43,0-2.86-.13-4.29-.13-2.54,0-5.09,0-7.63.11a10.44,10.44,0,0,0-3.08.59,5.3,5.3,0,0,0-3.57,3.58.71.71,0,0,0,0,.29,7.06,7.06,0,0,0,1.87,3.48,6.81,6.81,0,0,0,4.34,2c1.75.15,3.5.25,5.25.28H96.5a37,37,0,0,0,5.16-.3,17.17,17.17,0,0,0,7-2.46,11.16,11.16,0,0,0,4.1-4.28,13.27,13.27,0,0,0,1.35-4.56,7.06,7.06,0,0,0-.11-3,9.22,9.22,0,0,0-4.2-5.59c-.67-.4-1.3-.65-2-1ZM59.93,66a42.57,42.57,0,0,1,7.25-3.83c1.68-.76,3.35-1.55,5-2.41a10.8,10.8,0,0,0,3.67-3.11,8.58,8.58,0,0,0,1.58-5.59,12.71,12.71,0,0,0-.94-4.29.57.57,0,0,0-.62-.46H57.53a.94.94,0,0,0,.08.31,18,18,0,0,1,.74,4.56,20.4,20.4,0,0,1-.45,5.17c-.45,2-.95,4.06-1.43,6.09a.78.78,0,0,1-.06.35h2.86a.62.62,0,0,1,.66.58V66Zm45.79-24.61c.35,1,.71,2,1,3a29.34,29.34,0,0,1,1.24,8c0,1,0,2-.1,3a28.52,28.52,0,0,1-1.3,6.78,30.47,30.47,0,0,1-4.78,9.29.3.3,0,0,0,0,.41h0c.59.85,1.2,1.69,1.74,2.58s1.12,2,1.68,3A36,36,0,0,0,114,59a36.68,36.68,0,0,0-2.7-20.83A16.15,16.15,0,0,1,105.72,41.42Zm-6.29,1.14c.22,1.39.44,2.73.65,4.09s.5,3,.61,4.46a23.58,23.58,0,0,1-1.28,9,39.16,39.16,0,0,1-2.67,6.25c-.13.22-.08.33.1.5q1.66,1.55,3.3,3.12c.26.26.49.55.76.85.08-.11.15-.18.21-.26a29.3,29.3,0,0,0,5.72-16.13,28.09,28.09,0,0,0-.25-5.5,29.31,29.31,0,0,0-1.86-6.94c-.08-.2-.16-.27-.39-.2a16.39,16.39,0,0,1-3.48.62Zm-3.64,3.8v.26a21.87,21.87,0,0,1,.84,7.59,23.81,23.81,0,0,1-1,5.49A27.78,27.78,0,0,1,87,72.52,48.86,48.86,0,0,1,79.4,77.7c-2,1.16-4,2.33-6,3.55A16.07,16.07,0,0,0,69,85.18,11,11,0,0,0,67.39,88c0,.13-.13.27.07.32l2.33.64a8.19,8.19,0,0,1,3.74-4.61,35.94,35.94,0,0,1,3.37-1.9,56.18,56.18,0,0,0,10-6.17A33.37,33.37,0,0,0,94,68.74a36.31,36.31,0,0,0,3.8-7.48,24.23,24.23,0,0,0,1.76-9.52A23.6,23.6,0,0,0,99,47c-.16-.66-.16-.65-.83-.65ZM62.68,86.55a1.24,1.24,0,0,0,.1-.2,17.21,17.21,0,0,1,5.42-7.3,39.38,39.38,0,0,1,6-3.79c2-1.13,4.1-2.26,6.1-3.48a27.55,27.55,0,0,0,6.83-5.71,20.39,20.39,0,0,0,4-7.12,18.33,18.33,0,0,0,.8-7.68,16.46,16.46,0,0,0-1.28-4.71.33.33,0,0,0-.34-.22h-2.2l.07.22A16.77,16.77,0,0,1,88.88,57a19.75,19.75,0,0,1-7.06,10.7,36.51,36.51,0,0,1-6.23,3.77c-1.94,1-3.9,1.94-5.82,3a20.11,20.11,0,0,0-6.49,5.35,18.08,18.08,0,0,0-2.86,5.2c0,.1,0,.3,0,.33C61.2,85.8,61.94,86.17,62.68,86.55ZM59.3,84.78c0-.11.08-.17.1-.24A19.59,19.59,0,0,1,67,75a62.71,62.71,0,0,1,7.47-4.06,44.36,44.36,0,0,0,5.42-3.06,18.87,18.87,0,0,0,6.45-7.28,16.69,16.69,0,0,0,1.77-9.79,14.31,14.31,0,0,0-1.2-4.21c0-.08-.13-.18-.2-.18H85l.1.39a17.76,17.76,0,0,1,.52,8.13,14.28,14.28,0,0,1-3.88,7.66,20.72,20.72,0,0,1-5,3.83c-2.16,1.2-4.36,2.32-6.55,3.46a44.14,44.14,0,0,0-5.43,3.3,21.83,21.83,0,0,0-5.81,6,15.51,15.51,0,0,0-1.72,3.91v.31C57.84,83.84,58.56,84.3,59.3,84.78Zm32.28,2.35a14.35,14.35,0,0,0-5.66-8.42c-.17-.12-.26,0-.4,0-1.62,1-3.21,2-4.87,3s-3.31,1.69-5,2.56a12.67,12.67,0,0,0-3.36,2.45,5.94,5.94,0,0,0-1.43,2.43A36.7,36.7,0,0,0,91.58,87.13ZM66.2,88a1.46,1.46,0,0,1,.07-.19,12.34,12.34,0,0,1,2.65-4.3,21.43,21.43,0,0,1,4.75-3.73C76,78.32,78.45,77,80.83,75.54a39.2,39.2,0,0,0,7.22-5.47,25,25,0,0,0,5.89-8.89A22.46,22.46,0,0,0,95.51,54a32.78,32.78,0,0,0-.07-3.29,18.12,18.12,0,0,0-.79-4.06.32.32,0,0,0-.37-.26H91.75a1.34,1.34,0,0,0,.07.18,18.11,18.11,0,0,1,1.31,7.84,20.39,20.39,0,0,1-.91,4.89,22.09,22.09,0,0,1-7,10.4A47.56,47.56,0,0,1,77.13,75c-2,1.13-4,2.23-6,3.43a17.84,17.84,0,0,0-6.07,5.93A12.88,12.88,0,0,0,63.79,87ZM81.51,46.36c.06.16.09.28.13.41a12.69,12.69,0,0,1,.58,6.29,14.18,14.18,0,0,1-5.63,9.29,25.86,25.86,0,0,1-5,2.88c-1.77.82-3.57,1.56-5.32,2.42a25.8,25.8,0,0,0-8,6.1,23.76,23.76,0,0,0-4.24,7,.24.24,0,0,0,.09.33h0l1,.87.86.66.07-.08.1-.28a19,19,0,0,1,6.06-8.67,38.06,38.06,0,0,1,6.85-4.44C71.13,68,73.26,67,75.33,66a22.07,22.07,0,0,0,4.93-3.53,13.51,13.51,0,0,0,4.33-8.63,16.86,16.86,0,0,0-.79-7.19.33.33,0,0,0-.24-.2Zm-4,0c.15.46.3.88.43,1.3a12.11,12.11,0,0,1,.5,5.38,9.69,9.69,0,0,1-3.88,6.53,26.71,26.71,0,0,1-5.63,3.13c-1.74.78-3.51,1.53-5.22,2.39a26,26,0,0,0-6.52,4.63,31.25,31.25,0,0,0-6,8.32.31.31,0,0,0,.06.29c.53.55,1.07,1.08,1.61,1.61l.19.13.1-.18c.38-.8.73-1.62,1.14-2.4a24.45,24.45,0,0,1,10.59-10.4c1.94-1,4-1.83,5.94-2.74a23.49,23.49,0,0,0,6-3.66,12.68,12.68,0,0,0,4.43-9.5,11.23,11.23,0,0,0-.85-4.58c0-.1-.18-.24-.28-.24-.87,0-1.72,0-2.59,0Zm.5-11.6h0c.07.4.12.8.2,1.2a6.28,6.28,0,0,0,1.89,3.48A7.51,7.51,0,0,0,85,41.3c1.9.06,3.8,0,5.69,0h7.39c1.11,0,2.23,0,3.32-.1a17.31,17.31,0,0,0,5.23-1.44,12.29,12.29,0,0,0,7.27-8.06c.15-.51.26-1,.38-1.56a.2.2,0,0,0-.12.08,11.86,11.86,0,0,1-4.46,5.41,18.31,18.31,0,0,1-7.92,2.87,48.54,48.54,0,0,1-6.49.4c-3.09,0-6.19.06-9.29-.17-.86-.07-1.72-.16-2.58-.3a7.34,7.34,0,0,1-4.57-2.67,5.09,5.09,0,0,1-.82-1ZM94.64,70a26.56,26.56,0,0,1,7.71,10.57c.62-.6,1.19-1.16,1.78-1.7a.38.38,0,0,0,.09-.53,29.81,29.81,0,0,0-7-9.57c-.37-.33-.75-.64-1.14-1Zm4.65,13c.64-.5,1.24-1,1.86-1.45a.4.4,0,0,0,.18-.54l0,0a25.65,25.65,0,0,0-5.93-8.82c-.45-.43-.92-.84-1.39-1.26l-1.64,2A22.78,22.78,0,0,1,99.29,83Zm-9.53-7.38A19,19,0,0,1,96.13,85c.72-.46,1.41-.88,2.08-1.32a.31.31,0,0,0,.07-.29c-.25-.67-.5-1.35-.79-2a21,21,0,0,0-4-5.9c-.6-.64-1.26-1.22-1.92-1.85Zm-3,2.38a15.45,15.45,0,0,1,5.92,8.79l2.48-1.22c-.32-.84-.58-1.64-.92-2.42a17.53,17.53,0,0,0-5.14-6.7c-.15-.13-.26-.15-.41,0a6.21,6.21,0,0,1-.63.52Zm-30-30.1a22.24,22.24,0,0,0-.23,9.64,17.69,17.69,0,0,0,.21-9.68Zm21.15-25-.55.46h1Z" transform="translate(-1.71)"/><path class="cls-4" d="M66.2,52.07a1.9,1.9,0,0,1-1.89-1.53h-2a4,4,0,0,0,7.82,0h-2A1.89,1.89,0,0,1,66.2,52.07Z" transform="translate(-1.71)"/><path d="M29.1,121.85a3.39,3.39,0,0,1,.77-2.31,2.78,2.78,0,0,1,4.1,0,3.39,3.39,0,0,1,.77,2.31v.2a3.39,3.39,0,0,1-.77,2.31,2.54,2.54,0,0,1-2,.9,2.57,2.57,0,0,1-2.06-.9,3.39,3.39,0,0,1-.77-2.31Zm.7.2a3,3,0,0,0,.56,1.86,1.87,1.87,0,0,0,1.57.76,1.81,1.81,0,0,0,1.54-.76,3,3,0,0,0,.56-1.86v-.2a3,3,0,0,0-.56-1.85,1.81,1.81,0,0,0-1.55-.76,1.84,1.84,0,0,0-1.56.76,3.05,3.05,0,0,0-.56,1.85Z" transform="translate(-1.71)"/><path d="M35.79,119.33v-.58h1.06v-.93a2.11,2.11,0,0,1,.48-1.48,1.73,1.73,0,0,1,1.35-.53,2.56,2.56,0,0,1,.39,0l.41.08-.09.59a1.36,1.36,0,0,0-.29-.06l-.34,0a1.07,1.07,0,0,0-.89.37,1.5,1.5,0,0,0-.31,1v.93h1.52v.58H37.56v5.21l1,.08v.52H35.89v-.52l1-.08v-5.21Z" transform="translate(-1.71)"/><path d="M49.72,116.55v1.81H49.1l-.05-1.21H46.66v7.39l1,.08v.52H45v-.52l1-.08v-7.39H43.57l0,1.21h-.63v-1.81Z" transform="translate(-1.71)"/><path d="M50.46,116.46v-.53h1.66v3.92A2.3,2.3,0,0,1,53,119a2.38,2.38,0,0,1,1.24-.31,1.93,1.93,0,0,1,1.55.62,2.94,2.94,0,0,1,.54,1.94v3.34l1,.08v.52H54.63v-.52l1-.08v-3.35a2.21,2.21,0,0,0-.41-1.49,1.46,1.46,0,0,0-1.13-.45,1.9,1.9,0,0,0-1.21.38,2.14,2.14,0,0,0-.72,1v3.9l1,.08v.52H50.46v-.52l1-.08v-8Z" transform="translate(-1.71)"/><path d="M61.08,125.26a2.56,2.56,0,0,1-2-.88,3.23,3.23,0,0,1-.79-2.24v-.33a3.31,3.31,0,0,1,.79-2.27,2.43,2.43,0,0,1,1.9-.9,2.36,2.36,0,0,1,1.85.74,2.84,2.84,0,0,1,.67,2v.6H59v.18a2.85,2.85,0,0,0,.58,1.8,1.83,1.83,0,0,0,1.51.73,2.92,2.92,0,0,0,1.12-.19A2.14,2.14,0,0,0,63,124l.3.48a2.54,2.54,0,0,1-.9.6A3.49,3.49,0,0,1,61.08,125.26Zm-.1-6a1.69,1.69,0,0,0-1.31.6,2.55,2.55,0,0,0-.62,1.5v0H62.8v-.18a2,2,0,0,0-.49-1.39A1.66,1.66,0,0,0,61,119.24Z" transform="translate(-1.71)"/><path d="M73.61,119.1H73l-.1-1.22a2.18,2.18,0,0,0-.87-.63,3.42,3.42,0,0,0-1.29-.22,2.59,2.59,0,0,0-1.65.46,1.37,1.37,0,0,0-.6,1.14,1.34,1.34,0,0,0,.54,1.08,4.89,4.89,0,0,0,1.85.77,5.32,5.32,0,0,1,2.11,1,2,2,0,0,1,.72,1.59,1.91,1.91,0,0,1-.84,1.63,3.52,3.52,0,0,1-2.14.61,4.6,4.6,0,0,1-1.71-.32,3.4,3.4,0,0,1-1.29-.93v-1.5h.58l.1,1.25a2.47,2.47,0,0,0,1,.68,3.73,3.73,0,0,0,1.32.23,2.74,2.74,0,0,0,1.64-.45A1.4,1.4,0,0,0,73,123a1.44,1.44,0,0,0-.52-1.15,4.83,4.83,0,0,0-1.83-.78,6.06,6.06,0,0,1-2.14-.92,1.85,1.85,0,0,1-.72-1.53,1.93,1.93,0,0,1,.82-1.61,3.47,3.47,0,0,1,2.13-.62,4,4,0,0,1,1.67.33,2.82,2.82,0,0,1,1.16.88Z" transform="translate(-1.71)"/><path d="M74.9,121.85a3.45,3.45,0,0,1,.77-2.31,2.78,2.78,0,0,1,4.1,0,3.4,3.4,0,0,1,.78,2.31v.2a3.45,3.45,0,0,1-.77,2.31,2.8,2.8,0,0,1-4.11,0,3.45,3.45,0,0,1-.77-2.31Zm.71.2a3,3,0,0,0,.56,1.86,2,2,0,0,0,3.11,0,3,3,0,0,0,.56-1.86v-.2a3.05,3.05,0,0,0-.56-1.85,1.84,1.84,0,0,0-1.56-.76,1.81,1.81,0,0,0-1.55.76,3.05,3.05,0,0,0-.56,1.85Z" transform="translate(-1.71)"/><path d="M86.39,124.09a2.29,2.29,0,0,1-.82.87,2.44,2.44,0,0,1-1.23.3,2,2,0,0,1-1.58-.68,3.31,3.31,0,0,1-.57-2.13v-3.09l-.79-.08v-.53h1.49v3.72a2.72,2.72,0,0,0,.4,1.67,1.34,1.34,0,0,0,1.13.51,2.09,2.09,0,0,0,1.28-.36,1.9,1.9,0,0,0,.67-1v-4l-.91-.08v-.53h1.61v5.79l.86.08v.52H86.45Z" transform="translate(-1.71)"/><path d="M90.59,117.12v1.63H92v.58h-1.4v4.16a1.36,1.36,0,0,0,.23.89.76.76,0,0,0,.6.26h.34l.37,0,.11.52a2.21,2.21,0,0,1-.43.12,2.92,2.92,0,0,1-.51,0,1.33,1.33,0,0,1-1-.42,2,2,0,0,1-.37-1.35v-4.16h-1.1v-.58h1.1v-1.63Z" transform="translate(-1.71)"/><path d="M93.09,116.46v-.53h1.66v3.92a2.24,2.24,0,0,1,2.09-1.21,1.93,1.93,0,0,1,1.55.62,2.94,2.94,0,0,1,.54,1.94v3.34l1,.08v.52H97.26v-.52l1-.08v-3.35a2.21,2.21,0,0,0-.41-1.49,1.45,1.45,0,0,0-1.13-.45,1.92,1.92,0,0,0-1.21.38,2.14,2.14,0,0,0-.72,1v3.9l1,.08v.52H93.09v-.52l1-.08v-8Z" transform="translate(-1.71)"/><path d="M102.85,119.28l-.8.06,1,3.73.24,1.14h0l.3-1.14,1.36-4.32h.6l1.37,4.32.3,1.17h0l.26-1.17,1-3.73-.81-.06v-.53h2.15v.53l-.62,0-1.69,5.81H107l-1.42-4.37-.28-1.1h0l-.27,1.1-1.4,4.37H103l-1.69-5.81-.62,0v-.53h2.14Z" transform="translate(-1.71)"/><path d="M113.74,125.26a2.56,2.56,0,0,1-2-.88,3.23,3.23,0,0,1-.79-2.24v-.33a3.31,3.31,0,0,1,.79-2.27,2.43,2.43,0,0,1,1.9-.9,2.36,2.36,0,0,1,1.85.74,2.84,2.84,0,0,1,.67,2v.6h-4.51v.18a2.85,2.85,0,0,0,.58,1.8,1.83,1.83,0,0,0,1.51.73,2.92,2.92,0,0,0,1.12-.19,2.14,2.14,0,0,0,.79-.52l.31.48a2.67,2.67,0,0,1-.91.6A3.49,3.49,0,0,1,113.74,125.26Zm-.1-6a1.69,1.69,0,0,0-1.31.6,2.55,2.55,0,0,0-.62,1.5v0h3.74v-.18a2,2,0,0,0-.49-1.39A1.66,1.66,0,0,0,113.64,119.24Z" transform="translate(-1.71)"/><path d="M122.06,120.72h-.58l-.08-.9a1.93,1.93,0,0,0-.67-.43,2.67,2.67,0,0,0-.93-.15,1.73,1.73,0,0,0-1.16.33,1,1,0,0,0-.39.78.92.92,0,0,0,.33.73,3.13,3.13,0,0,0,1.33.51,4.29,4.29,0,0,1,1.71.7,1.42,1.42,0,0,1,.57,1.19,1.56,1.56,0,0,1-.65,1.29,2.73,2.73,0,0,1-1.71.49,3.8,3.8,0,0,1-1.29-.2,3,3,0,0,1-1-.55v-1.29h.57l.1.91a1.7,1.7,0,0,0,.72.41,3.32,3.32,0,0,0,.9.13,2,2,0,0,0,1.21-.34,1,1,0,0,0,.44-.81,1,1,0,0,0-.37-.79,2.94,2.94,0,0,0-1.33-.55,4.36,4.36,0,0,1-1.69-.66,1.35,1.35,0,0,1-.55-1.14,1.56,1.56,0,0,1,.62-1.24,2.49,2.49,0,0,1,1.64-.5,3.78,3.78,0,0,1,1.28.21,2.78,2.78,0,0,1,1,.58Z" transform="translate(-1.71)"/><path d="M125.09,117.12v1.63h1.41v.58h-1.41v4.16a1.36,1.36,0,0,0,.23.89.77.77,0,0,0,.61.26h.33l.37,0,.11.52a2,2,0,0,1-.43.12,2.92,2.92,0,0,1-.51,0,1.31,1.31,0,0,1-1-.42,2,2,0,0,1-.38-1.35v-4.16h-1.1v-.58h1.1v-1.63Z" transform="translate(-1.71)"/></svg>