<svg xmlns="http://www.w3.org/2000/svg" viewBox="0 0 152.4 33.56"><defs><style>.cls-1{fill:#fff;}</style></defs><g id="Layer_2" data-name="Layer 2"><g id="Layer_1-2" data-name="Layer 1"><path class="cls-1" d="M5.5.42H0v17.2H3.6v-6.1H5.2A7.76,7.76,0,0,0,10.1,10a5.25,5.25,0,0,0,1.7-4.15,5.34,5.34,0,0,0-1.6-4.1C9.2.87,7.6.47,5.5.47ZM3.6,8.52V3.42H5.3A3.09,3.09,0,0,1,7.4,4a2.25,2.25,0,0,1,.7,1.9,2.56,2.56,0,0,1-.8,1.9,3.57,3.57,0,0,1-2.5.7Z"/><path class="cls-1" d="M29,.42H25.4V11a4,4,0,0,1-.8,2.9,3.41,3.41,0,0,1-2.6.9,3.25,3.25,0,0,1-2.6-.9,4.54,4.54,0,0,1-.8-2.9V.52H15v11a6,6,0,0,0,1.8,4.6,7.29,7.29,0,0,0,5.1,1.7,8.88,8.88,0,0,0,3.8-.8,5.4,5.4,0,0,0,2.5-2.2,6.66,6.66,0,0,0,.8-3.3Z"/><path class="cls-1" d="M38.2.42h-5v17.2h3.6V11h2l4.1,6.6h4c-.7-1.2-2.4-3.6-5-7.5a4.5,4.5,0,0,0,2.4-1.8,5,5,0,0,0,.8-2.7,4.65,4.65,0,0,0-1.7-3.9C42.3.82,40.5.42,38.2.42ZM36.8,8V3.42h1.1a5.42,5.42,0,0,1,2.6.5,1.87,1.87,0,0,1,.8,1.7,2.19,2.19,0,0,1-.8,1.8A4.14,4.14,0,0,1,38,8Z"/><polygon class="cls-1" points="58.9 0.42 49 0.42 49 17.62 58.9 17.62 58.9 14.62 52.7 14.62 52.7 10.22 58.5 10.22 58.5 7.22 52.7 7.22 52.7 3.42 58.9 3.42 58.9 0.42 58.9 0.42"/><path class="cls-1" d="M73.4,0a6.17,6.17,0,0,0-4.3,1.3,4.6,4.6,0,0,0-1.5,3.6A3.6,3.6,0,0,0,68.1,7a5,5,0,0,0,1.3,1.6A22.09,22.09,0,0,0,71.8,10a15.64,15.64,0,0,1,2.2,1.2,6,6,0,0,1,.8.8,1.62,1.62,0,0,1,.3.9,1.66,1.66,0,0,1-.6,1.4,3,3,0,0,1-1.8.5,9.11,9.11,0,0,1-2.2-.3,23,23,0,0,1-2.9-1.1v3.45a11.33,11.33,0,0,0,4.9,1,7.18,7.18,0,0,0,4.6-1.3,4.65,4.65,0,0,0,1.7-3.7,5.54,5.54,0,0,0-1.4-3,9.37,9.37,0,0,0-3.3-2.3c-1.2-.6-2-1-2.3-1.2a2.34,2.34,0,0,1-.7-.7,1.86,1.86,0,0,1-.2-.8,1.49,1.49,0,0,1,.6-1.3,2.56,2.56,0,0,1,1.6-.5,5.45,5.45,0,0,1,1.8.2,20.86,20.86,0,0,1,2.3.8l1.2-2.8a12.44,12.44,0,0,0-2.5-.9,10.06,10.06,0,0,0-2.5-.3Z"/><path class="cls-1" d="M87.5.42H82v17.2h3.6v-6.1h1.6A7.76,7.76,0,0,0,92.1,10a5.25,5.25,0,0,0,1.7-4.15,5.34,5.34,0,0,0-1.6-4.1c-1-.9-2.6-1.3-4.7-1.3Zm-2,8.1V3.42h1.7a3.38,3.38,0,0,1,2.2.6,2.25,2.25,0,0,1,.7,1.9,2.56,2.56,0,0,1-.8,1.9,3.57,3.57,0,0,1-2.5.7Z"/><path class="cls-1" d="M105.4.42H101l-6,17.2h3.9l1.2-4.1h6.2l1.2,4.1h4Zm-4.4,10c1.2-3.9,1.9-6.4,2.2-7.4a5.11,5.11,0,0,1,.3,1.1c.1.5.8,2.6,1.9,6.3Z"/><path class="cls-1" d="M121,0a8.31,8.31,0,0,0-4.3,1.1,7.12,7.12,0,0,0-2.8,3.1,10.18,10.18,0,0,0-1,4.7,9.68,9.68,0,0,0,2,6.5,7.18,7.18,0,0,0,5.7,2.3,12,12,0,0,0,4.7-.9v-3a13.8,13.8,0,0,1-4.4.9c-2.9,0-4.3-1.9-4.3-5.7a6.87,6.87,0,0,1,1.1-4.3,3.78,3.78,0,0,1,3.2-1.5,6.74,6.74,0,0,1,2,.2,14.41,14.41,0,0,1,1.9.8l1.2-3A11.54,11.54,0,0,0,121,0Z"/><polygon class="cls-1" points="138.7 0.42 128.8 0.42 128.8 17.62 138.7 17.62 138.7 14.62 132.5 14.62 132.5 10.22 138.3 10.22 138.3 7.22 132.5 7.22 132.5 3.42 138.7 3.42 138.7 0.42 138.7 0.42"/><path class="cls-1" d="M147,0a6.17,6.17,0,0,0-4.3,1.3,4.6,4.6,0,0,0-1.5,3.6,3.6,3.6,0,0,0,.5,2.1,5,5,0,0,0,1.3,1.6,22.09,22.09,0,0,0,2.4,1.4,15.64,15.64,0,0,1,2.2,1.2,6,6,0,0,1,.8.8,1.62,1.62,0,0,1,.3.9,1.66,1.66,0,0,1-.6,1.4,3,3,0,0,1-1.8.5,9.11,9.11,0,0,1-2.2-.3,23,23,0,0,1-2.9-1.1v3.45a11.33,11.33,0,0,0,4.9,1,7.18,7.18,0,0,0,4.6-1.3,4.65,4.65,0,0,0,1.7-3.7,5.54,5.54,0,0,0-1.4-3,9.37,9.37,0,0,0-3.3-2.3c-1.2-.6-2-1-2.3-1.2a2.34,2.34,0,0,1-.7-.7,1.86,1.86,0,0,1-.2-.8,1.49,1.49,0,0,1,.6-1.3,2.56,2.56,0,0,1,1.6-.5,5.45,5.45,0,0,1,1.8.2,20.86,20.86,0,0,1,2.3.8l1.2-2.8a12.44,12.44,0,0,0-2.5-.9,10.06,10.06,0,0,0-2.5-.3Z"/><path class="cls-1" d="M18.36,24.69a3.49,3.49,0,0,0-2.77,1.18,4.78,4.78,0,0,0-1,3.24,5.48,5.48,0,0,0,.46,2.33A3.4,3.4,0,0,0,16.35,33a3.71,3.71,0,0,0,2,.53,3.49,3.49,0,0,0,2.78-1.16,5.71,5.71,0,0,0,0-6.47,3.37,3.37,0,0,0-2.74-1.18Zm0,8.11a2.62,2.62,0,0,1-2.18-1,5.3,5.3,0,0,1,0-5.46,2.6,2.6,0,0,1,2.16-1,2.65,2.65,0,0,1,2.19,1,4.28,4.28,0,0,1,.78,2.73,4.29,4.29,0,0,1-.77,2.73A2.62,2.62,0,0,1,18.36,32.8Z"/><path class="cls-1" d="M27.29,21.11a2.23,2.23,0,0,0-1.88.73,3.63,3.63,0,0,0-.58,2.29v.66l-1.58.28v.46h1.58v7.82h.78V25.53h2v-.66h-2v-.79A3.1,3.1,0,0,1,26,22.34a1.49,1.49,0,0,1,1.29-.54,4,4,0,0,1,1.24.2l.18-.67a4.75,4.75,0,0,0-1.4-.21Z"/><polygon class="cls-1" points="40.29 21.93 32.06 21.93 32.06 22.68 35.77 22.68 35.77 33.35 36.58 33.35 36.58 22.68 40.29 22.68 40.29 21.93 40.29 21.93"/><path class="cls-1" d="M42.39,26.65a2.31,2.31,0,0,0-.1.28v-.28h.1m.17-5.46h-.77V33.35h.77V28.66a3.62,3.62,0,0,1,.71-2.5,2.86,2.86,0,0,1,2.23-.76,2.19,2.19,0,0,1,1.67.58,2.64,2.64,0,0,1,.54,1.86v5.51h.76V27.79c0-2.06-1-3.1-2.89-3.1a4.13,4.13,0,0,0-1.8.35,2.77,2.77,0,0,0-1.21,1.11h0v-5Z"/><path class="cls-1" d="M54.43,24.69a3.32,3.32,0,0,0-2.7,1.22,5,5,0,0,0-1,3.26,4.6,4.6,0,0,0,1,3.19,3.71,3.71,0,0,0,2.88,1.14A6.83,6.83,0,0,0,56,33.39,6.15,6.15,0,0,0,57.28,33v-.71a7.49,7.49,0,0,1-1.39.44,6.84,6.84,0,0,1-1.28.1,2.91,2.91,0,0,1-2.29-.92,4,4,0,0,1-.82-2.67h6.12v-.63a4.27,4.27,0,0,0-.87-2.84,2.9,2.9,0,0,0-2.36-1Zm-2.84,3.83a3.75,3.75,0,0,1,.87-2.33,2.52,2.52,0,0,1,2-.81,2.11,2.11,0,0,1,1.77.83,3.72,3.72,0,0,1,.64,2.31Z"/><path class="cls-1" d="M67.33,21.76a4,4,0,0,0-2.58.81,2.8,2.8,0,0,0-.39,3.94l0,.06a6.26,6.26,0,0,0,2.42,1.3,13.19,13.19,0,0,1,1.82.76,2.67,2.67,0,0,1,.89.78,2,2,0,0,1,.27,1.07,2,2,0,0,1-.83,1.7,3.49,3.49,0,0,1-2.23.64,8,8,0,0,1-3.14-.52v.79a8.74,8.74,0,0,0,3.21.46,4.36,4.36,0,0,0,2.79-.83,2.73,2.73,0,0,0,1-2.27,2.58,2.58,0,0,0-.31-1.33,2.82,2.82,0,0,0-1-1,9.72,9.72,0,0,0-2-.9,9.8,9.8,0,0,1-1.79-.78,2.21,2.21,0,0,1-.76-.73,2,2,0,0,1-.23-1,1.9,1.9,0,0,1,.75-1.6,3.17,3.17,0,0,1,2-.58,6.89,6.89,0,0,1,2.72.59l.29-.69a7.73,7.73,0,0,0-3-.61Z"/><path class="cls-1" d="M76.16,24.69a3.46,3.46,0,0,0-2.76,1.18,4.73,4.73,0,0,0-1,3.24,5.66,5.66,0,0,0,.45,2.33A3.42,3.42,0,0,0,74.16,33a3.62,3.62,0,0,0,2,.53A3.51,3.51,0,0,0,79,32.36a5.74,5.74,0,0,0,0-6.47,3.39,3.39,0,0,0-2.75-1.18Zm0,8.11A2.62,2.62,0,0,1,74,31.87a5.25,5.25,0,0,1,0-5.46,2.87,2.87,0,0,1,4.35,0,4.28,4.28,0,0,1,.78,2.73,4.29,4.29,0,0,1-.77,2.73,2.62,2.62,0,0,1-2.17,1Z"/><path class="cls-1" d="M88.35,31.29v.39H88.2a3.12,3.12,0,0,0,.15-.39m.5-6.43h-.77v4.68a3.62,3.62,0,0,1-.71,2.5,2.9,2.9,0,0,1-2.23.76,2.19,2.19,0,0,1-1.67-.58,2.64,2.64,0,0,1-.54-1.86V24.87h-.77v5.54q0,3.1,2.9,3.1A3.2,3.2,0,0,0,88,32.18h0l.14,1.17h.66V24.87Z"/><path class="cls-1" d="M92.51,22.8h-.4l-.39,1.92-1.25.35v.46h1.25V31a2.78,2.78,0,0,0,.54,1.89,2.13,2.13,0,0,0,1.66.6,4.09,4.09,0,0,0,1.3-.18v-.63a5.59,5.59,0,0,1-1.29.13,1.27,1.27,0,0,1-1.07-.47,2.47,2.47,0,0,1-.35-1.45V25.53H95v-.66H92.51V22.81Z"/><path class="cls-1" d="M97.65,26.65a1.19,1.19,0,0,1-.1.28v-.28h.1m.18-5.46h-.78V33.35h.78V28.66a3.67,3.67,0,0,1,.7-2.5,2.9,2.9,0,0,1,2.23-.76,2.12,2.12,0,0,1,1.67.58,2.68,2.68,0,0,1,.57,1.89v5.51h.77V27.82c0-2.06-1-3.1-2.89-3.1a4.18,4.18,0,0,0-1.81.35,2.8,2.8,0,0,0-1.2,1.11h0v-5Z"/><path class="cls-1" d="M110.94,25.39v.08h-.06v-.08m5.46-.53h-.79l-1.29,4.87c-.38,1.47-.59,2.38-.63,2.72h0q-.13-.6-.69-2.43l-1.65-5.15h-.7l-1.75,5.18c-.14.4-.36,1.21-.67,2.43h0c-.1-.58-.31-1.47-.62-2.69l-1.41-4.92h-.83l2.43,8.49h.76l1.9-5.67.35-1.13.16-.58h0c.19.75.34,1.31.46,1.7l1.86,5.68H114l2.36-8.49Z"/><path class="cls-1" d="M121.26,24.69a3.29,3.29,0,0,0-2.69,1.22,5,5,0,0,0-1,3.26,4.6,4.6,0,0,0,1,3.19,3.7,3.7,0,0,0,2.89,1.14,6.67,6.67,0,0,0,1.34-.11,6.23,6.23,0,0,0,1.33-.42v-.71a7.49,7.49,0,0,1-1.39.44,6.84,6.84,0,0,1-1.28.1,2.88,2.88,0,0,1-2.29-.92,4,4,0,0,1-.82-2.67h6.12v-.63a4.27,4.27,0,0,0-.87-2.84,2.92,2.92,0,0,0-2.37-1Zm-2.83,3.83a3.82,3.82,0,0,1,.86-2.33,2.56,2.56,0,0,1,2-.81,2.13,2.13,0,0,1,1.78.83,3.79,3.79,0,0,1,.64,2.31Z"/><path class="cls-1" d="M129.33,24.69a3.83,3.83,0,0,0-2.24.56,1.71,1.71,0,0,0-.8,1.5,1.85,1.85,0,0,0,.26,1,2.43,2.43,0,0,0,.78.75,8.89,8.89,0,0,0,1.78.8,5.2,5.2,0,0,1,1.71.86,1.36,1.36,0,0,1,.52,1.07,1.3,1.3,0,0,1-.65,1.12,3.53,3.53,0,0,1-1.91.42,6,6,0,0,1-2.7-.64V33a5.72,5.72,0,0,0,2.7.52,4.26,4.26,0,0,0,2.46-.61,2,2,0,0,0,.87-1.75,1.77,1.77,0,0,0-.27-1,2.27,2.27,0,0,0-.78-.76,9.23,9.23,0,0,0-1.67-.74,6.48,6.48,0,0,1-1.85-.9,1.28,1.28,0,0,1-.47-1.06,1,1,0,0,1,.61-.95,3.36,3.36,0,0,1,1.65-.34,6.16,6.16,0,0,1,2.32.51l.28-.7a6.46,6.46,0,0,0-2.6-.52Z"/><path class="cls-1" d="M135.11,22.8h-.39l-.39,1.92-1.26.35v.46h1.26V31a2.78,2.78,0,0,0,.53,1.89,2.13,2.13,0,0,0,1.66.6,4.09,4.09,0,0,0,1.3-.18v-.63a5.51,5.51,0,0,1-1.28.13,1.25,1.25,0,0,1-1.08-.47,2.47,2.47,0,0,1-.35-1.45V25.53h2.5v-.66h-2.5V22.81Z"/></g></g></svg>